<?xml version="1.0" encoding="UTF-8"?>
<level>
  <owner>Fistachka</owner>
  <repo>tonic-harmonic-2</repo>
  <version>v1.0.3</version>
  <next number="1" owner="stolbitsa" repo="tonic"/>
  <readme>
    <ru>4893424a51de1bfd659060b1e6c49ee537640fbf8cdf739f2f0afb1e99770806</ru>
    <en>ba98431a6f8af387dddf169132d702123d0dfbfc0f34feacde4de244c302186e</en>
  </readme>
  <license>b1b99f5538d1fd3702219bff50c665196dfa42f6ee755c37fe41a6178d6bc6e5</license>
  <exercise number="1">
    <scale>major</scale>
    <bpm>80</bpm>
    <lowestNote>1</lowestNote>
    <tonalities>1,2,3,4,5,6,7,8,9,10,11,12</tonalities>
    <notes>
      <note number="1" values="1" ticks="0" durationTicks="187" ppq="96" velocity="0.843"/>
      <note number="2" values="1" ticks="0" durationTicks="91" ppq="96" velocity="0.913"/>
    </notes>
  </exercise>
  <exercise number="2">
    <scale>major</scale>
    <bpm>80</bpm>
    <lowestNote>1</lowestNote>
    <tonalities>1,2,3,4,5,6,7,8,9,10,11,12</tonalities>
    <notes>
      <note number="1" values="1,18" ticks="0" durationTicks="187" ppq="96" velocity="0.843"/>
      <note number="2" values="1,18" ticks="0" durationTicks="91" ppq="96" velocity="0.913"/>
    </notes>
  </exercise>
  <exercise number="3">
    <scale>major</scale>
    <bpm>80</bpm>
    <lowestNote>1</lowestNote>
    <tonalities>1,2,3,4,5,6,7,8,9,10,11,12</tonalities>
    <notes>
      <note number="1" values="18" ticks="0" durationTicks="187" ppq="96" velocity="0.843"/>
      <note number="2" values="18" ticks="0" durationTicks="91" ppq="96" velocity="0.913"/>
    </notes>
  </exercise>
  <exercise number="4">
    <scale>major</scale>
    <bpm>80</bpm>
    <lowestNote>1</lowestNote>
    <tonalities>1,2,3,4,5,6,7,8,9,10,11,12</tonalities>
    <notes>
      <note number="1" values="1,18" ticks="0" durationTicks="187" ppq="96" velocity="0.843"/>
      <note number="2" values="1,18" ticks="0" durationTicks="91" ppq="96" velocity="0.913"/>
    </notes>
  </exercise>
  <exercise number="5">
    <scale>major</scale>
    <bpm>80</bpm>
    <lowestNote>1</lowestNote>
    <tonalities>1,2,3,4,5,6,7,8,9,10,11,12</tonalities>
    <notes>
      <note number="1" values="18" ticks="0" durationTicks="187" ppq="96" velocity="0.843"/>
      <note number="2" values="18" ticks="0" durationTicks="91" ppq="96" velocity="0.913"/>
      <note number="3" values="18" ticks="191" durationTicks="95" ppq="96" velocity="0.913"/>
      <note number="4" values="18" ticks="191" durationTicks="192" ppq="96" velocity="0.913"/>
    </notes>
  </exercise>
  <exercise number="6">
    <scale>major</scale>
    <bpm>80</bpm>
    <lowestNote>1</lowestNote>
    <tonalities>1,2,3,4,5,6,7,8,9,10,11,12</tonalities>
    <notes>
      <note number="1" values="1,18" ticks="0" durationTicks="187" ppq="96" velocity="0.843"/>
      <note number="2" values="1,18" ticks="0" durationTicks="91" ppq="96" velocity="0.913"/>
      <note number="3" values="1,18" ticks="191" durationTicks="95" ppq="96" velocity="0.913"/>
      <note number="4" values="1,18" ticks="191" durationTicks="192" ppq="96" velocity="0.913"/>
    </notes>
  </exercise>
  <exercise number="7">
    <scale>major</scale>
    <bpm>80</bpm>
    <lowestNote>1</lowestNote>
    <tonalities>1,2,3,4,5,6,7,8,9,10,11,12</tonalities>
    <notes>
      <note number="1" values="18" ticks="0" durationTicks="187" ppq="96" velocity="0.843"/>
      <note number="2" values="18" ticks="0" durationTicks="91" ppq="96" velocity="0.913"/>
      <note number="3" values="1" ticks="191" durationTicks="95" ppq="96" velocity="0.913"/>
      <note number="4" values="1" ticks="191" durationTicks="192" ppq="96" velocity="0.913"/>
    </notes>
  </exercise>
  <exercise number="8">
    <scale>major</scale>
    <bpm>80</bpm>
    <lowestNote>1</lowestNote>
    <tonalities>1,2,3,4,5,6,7,8,9,10,11,12</tonalities>
    <notes>
      <note number="1" values="1,18" ticks="0" durationTicks="187" ppq="96" velocity="0.843"/>
      <note number="2" values="1,18" ticks="0" durationTicks="91" ppq="96" velocity="0.913"/>
      <note number="3" values="1,18" ticks="191" durationTicks="95" ppq="96" velocity="0.913"/>
      <note number="4" values="1,18" ticks="191" durationTicks="192" ppq="96" velocity="0.913"/>
    </notes>
  </exercise>
  <exercise number="9">
    <scale>major</scale>
    <bpm>80</bpm>
    <lowestNote>1</lowestNote>
    <tonalities>1,2,3,4,5,6,7,8,9,10,11,12</tonalities>
    <notes>
      <note number="1" values="1,18" ticks="0" durationTicks="187" ppq="96" velocity="0.843"/>
      <note number="2" values="1,18" ticks="0" durationTicks="91" ppq="96" velocity="0.913"/>
      <note number="3" values="1" ticks="192" durationTicks="95" ppq="96" velocity="0.913"/>
      <note number="4" values="1" ticks="192" durationTicks="129" ppq="96" velocity="0.913"/>
    </notes>
  </exercise>
  <exercise number="10">
    <scale>major</scale>
    <bpm>80</bpm>
    <lowestNote>1</lowestNote>
    <tonalities>1,2,3,4,5,6,7,8,9,10,11,12</tonalities>
    <notes>
      <note number="1" values="1,18" ticks="0" durationTicks="187" ppq="96" velocity="0.843"/>
      <note number="2" values="1,18" ticks="0" durationTicks="91" ppq="96" velocity="0.913"/>
      <note number="3" values="1,18" ticks="191" durationTicks="95" ppq="96" velocity="0.913"/>
      <note number="4" values="1,18" ticks="191" durationTicks="192" ppq="96" velocity="0.913"/>
    </notes>
  </exercise>
  <exercise number="11">
    <scale>major</scale>
    <bpm>80</bpm>
    <lowestNote>1</lowestNote>
    <tonalities>1,2,3,4,5,6,7,8,9,10,11,12</tonalities>
    <notes>
      <note number="1" values="18" ticks="0" durationTicks="187" ppq="96" velocity="0.843"/>
      <note number="2" values="18" ticks="0" durationTicks="91" ppq="96" velocity="0.913"/>
      <note number="3" values="1,18" ticks="191" durationTicks="95" ppq="96" velocity="0.913"/>
      <note number="4" values="1,18" ticks="191" durationTicks="192" ppq="96" velocity="0.913"/>
    </notes>
  </exercise>
  <exercise number="12">
    <scale>major</scale>
    <bpm>80</bpm>
    <lowestNote>1</lowestNote>
    <tonalities>1,2,3,4,5,6,7,8,9,10,11,12</tonalities>
    <notes>
      <note number="1" values="1,18" ticks="0" durationTicks="187" ppq="96" velocity="0.843"/>
      <note number="2" values="1,18" ticks="0" durationTicks="91" ppq="96" velocity="0.913"/>
      <note number="3" values="1,18" ticks="191" durationTicks="95" ppq="96" velocity="0.913"/>
      <note number="4" values="1,18" ticks="191" durationTicks="192" ppq="96" velocity="0.913"/>
    </notes>
  </exercise>
</level>
